name GIL11_fast2.mot
datacolumns 153
datarows 4
range 0.29999989 0.32499993
endheader

                time	           pelvis_tx	           pelvis_ty	           pelvis_tz	         pelvis_tilt	         pelvis_list	     pelvis_rotation	       hip_flexion_r	     hip_adduction_r	      hip_rotation_r	        knee_angle_r	       ankle_angle_r	    subtalar_angle_r	         mtp_angle_r	       hip_flexion_l	     hip_adduction_l	      hip_rotation_l	        knee_angle_l	       ankle_angle_l	    subtalar_angle_l	         mtp_angle_l	    lumbar_extension	      lumbar_bending	     lumbar_rotation	     ground_force_vx	     ground_force_vy	     ground_force_vz	     ground_force_px	     ground_force_py	     ground_force_pz	     ground_force_vx	     ground_force_vy	     ground_force_vz	     ground_force_px	     ground_force_py	     ground_force_pz	     ground_torque_x	     ground_torque_y	     ground_torque_z	     ground_torque_x	     ground_torque_y	     ground_torque_z	    ground_marker_px	    ground_marker_py	    ground_marker_pz	    ground_marker_px	    ground_marker_py	    ground_marker_pz	    ground_marker_px	    ground_marker_py	    ground_marker_pz	    ground_marker_px	    ground_marker_py	    ground_marker_pz	    ground_marker_px	    ground_marker_py	    ground_marker_pz	    ground_marker_px	    ground_marker_py	    ground_marker_pz	    ground_marker_px	    ground_marker_py	    ground_marker_pz	    ground_marker_px	    ground_marker_py	    ground_marker_pz	    ground_marker_px	    ground_marker_py	    ground_marker_pz	    ground_marker_px	    ground_marker_py	    ground_marker_pz	    ground_marker_px	    ground_marker_py	    ground_marker_pz	    ground_marker_px	    ground_marker_py	    ground_marker_pz	    ground_marker_px	    ground_marker_py	    ground_marker_pz	    ground_marker_px	    ground_marker_py	    ground_marker_pz	    ground_marker_px	    ground_marker_py	    ground_marker_pz	    ground_marker_px	    ground_marker_py	    ground_marker_pz	    ground_marker_px	    ground_marker_py	    ground_marker_pz	    ground_marker_px	    ground_marker_py	    ground_marker_pz	    ground_marker_px	    ground_marker_py	    ground_marker_pz	    ground_marker_px	    ground_marker_py	    ground_marker_pz	    ground_marker_px	    ground_marker_py	    ground_marker_pz	    ground_marker_px	    ground_marker_py	    ground_marker_pz	    ground_marker_px	    ground_marker_py	    ground_marker_pz	    ground_marker_px	    ground_marker_py	    ground_marker_pz	    ground_marker_px	    ground_marker_py	    ground_marker_pz	    ground_marker_px	    ground_marker_py	    ground_marker_pz	    ground_marker_px	    ground_marker_py	    ground_marker_pz	    ground_marker_px	    ground_marker_py	    ground_marker_pz	    ground_marker_px	    ground_marker_py	    ground_marker_pz	    ground_marker_px	    ground_marker_py	    ground_marker_pz	    ground_marker_px	    ground_marker_py	    ground_marker_pz	    ground_marker_px	    ground_marker_py	    ground_marker_pz	    ground_marker_px	    ground_marker_py	    ground_marker_pz	    ground_marker_px	    ground_marker_py	    ground_marker_pz	    ground_marker_px	    ground_marker_py	    ground_marker_pz	    ground_marker_px	    ground_marker_py	    ground_marker_pz	    ground_marker_px	    ground_marker_py	    ground_marker_pz	
          0.29999989	          1.59399629	          0.88118333	         -0.24624836	         -5.34684372	          0.63868409	         -0.77264106	         -0.85523701	          2.11387849	         11.68577099	         -6.45334148	          8.46393299	          0.00000000	          0.00000000	         27.78413010	         -5.26098967	          5.82224607	        -46.71810913	          4.78557920	          0.00000000	          0.00000000	         -0.66054702	         -6.21851444	          4.43563890	         13.52482270	        448.29204588	        -36.17006856	          1.49048157	          0.00000000	         -0.17604832	          0.00000000	          0.00000000	          0.00000000	          1.95042920	          0.00000000	         -0.32589148	          0.00000000	          1.85895386	          0.00000000	          0.00000000	          0.00000000	          0.00000000	          1.51990962	          0.82420385	         -0.23891164	          1.50358284	          0.80833870	         -0.17216064	          1.50104618	          0.80928946	         -0.32426414	          1.46369791	          0.43940258	         -0.18895270	          1.65509319	          0.43784994	         -0.36126024	          1.38063598	          0.07282001	         -0.20656252	          1.50642419	          0.11290909	         -0.35417336	          1.59399629	          0.88118333	         -0.24624836	          1.59210324	          0.88040972	         -0.12937997	          1.59588921	          0.88195693	         -0.36311677	          1.40371490	          0.94483018	         -0.21565738	          1.40093887	          0.93719083	         -0.26946193	          1.47422957	          0.43567362	         -0.13203892	          1.65944242	          0.44536549	         -0.41860658	          1.45723581	          0.44414485	         -0.24629077	          1.69183636	          0.45014441	         -0.29869872	          1.36602342	          0.07434378	         -0.16935833	          1.49031067	          0.11949601	         -0.39018679	          1.39550614	          0.07908842	         -0.23850614	          1.52113473	          0.11848916	         -0.33018276	          1.49199927	          1.38117576	         -0.25767177	          1.62029874	          1.32455754	         -0.21472016	          1.61276722	          1.31471443	         -0.31941193	          1.61328554	          1.31601429	         -0.26600847	          1.65392184	          1.24744892	         -0.26628181	          1.63278925	          0.55512071	         -0.21744716	          1.64627945	          0.58215153	         -0.49745655	          1.58392715	          0.61044502	         -0.14878467	          1.57864702	          0.60178745	         -0.42939791	          1.56159067	          0.52590430	         -0.15410607	          1.62260759	          0.52449471	         -0.42446947	          1.37310874	          0.14702475	         -0.09508901	          1.64257824	          0.19017649	         -0.35955942	          1.37910521	          0.15665042	         -0.13714431	          1.60308635	          0.20510364	         -0.36257303	          1.47418451	          0.03940202	         -0.17078419	          1.59068239	          0.06084816	         -0.38707763	
          0.30833325	          1.60634089	          0.87983233	         -0.24668030	         -5.50366402	          0.94725877	         -0.72954094	         -1.91877460	          1.81854284	         11.47024536	         -5.83498526	          8.46018887	          0.00000000	          0.00000000	         28.97369385	         -4.68948603	          5.25589228	        -44.61262512	          5.14086199	          0.00000000	          0.00000000	         -0.59778309	         -6.03551769	          4.55325079	         18.62758296	        459.84205289	        -34.73240226	          1.49140002	          0.00000000	         -0.17682201	          0.00000000	          0.00000000	          0.00000000	          1.95676636	          0.00000000	         -0.32638654	          0.00000000	          2.01494067	          0.00000000	          0.00000000	          0.00000000	          0.00000000	          1.53215599	          0.82348931	         -0.23922098	          1.51566243	          0.80683845	         -0.17306475	          1.51326561	          0.80861175	         -0.32516313	          1.46801579	          0.43968642	         -0.19002746	          1.67404485	          0.43994680	         -0.35982311	          1.38125062	          0.07380635	         -0.20733856	          1.54322553	          0.10649750	         -0.35420892	          1.60634089	          0.87983233	         -0.24668030	          1.60433948	          0.87843657	         -0.12976703	          1.60834217	          0.88122809	         -0.36359358	          1.41594362	          0.94407719	         -0.21577373	          1.41318619	          0.93640929	         -0.26959455	          1.47824585	          0.43572754	         -0.13307424	          1.67802250	          0.44708005	         -0.41724521	          1.46138895	          0.44485939	         -0.24818245	          1.70863736	          0.45240349	         -0.29798928	          1.36654592	          0.07553533	         -0.17017971	          1.52687156	          0.11230671	         -0.39024779	          1.39647150	          0.07933727	         -0.23939782	          1.55779409	          0.11231413	         -0.33054578	          1.50502980	          1.38028812	         -0.25729725	          1.63379359	          1.32308400	         -0.21438403	          1.62613952	          1.31414437	         -0.31943497	          1.62665546	          1.31478512	         -0.26594964	          1.66732156	          1.24640536	         -0.26679701	          1.63980281	          0.55216259	         -0.21785174	          1.66210294	          0.58260077	         -0.49705648	          1.59131396	          0.60851723	         -0.15057281	          1.59392536	          0.60212046	         -0.42947391	          1.56670940	          0.52468991	         -0.15534143	          1.63877547	          0.52552837	         -0.42418712	          1.37417114	          0.14839345	         -0.09592605	          1.67490017	          0.19146077	         -0.35894734	          1.38060117	          0.15734644	         -0.13854088	          1.63429093	          0.20344149	         -0.36206973	          1.47438180	          0.03946406	         -0.17108449	          1.63035846	          0.05990428	         -0.38881227	
          0.31666657	          1.61881554	          0.87823594	         -0.24712840	         -5.64238167	          1.22672260	         -0.66248953	         -2.98206520	          1.55521047	         11.15743637	         -5.26879025	          8.41709995	          0.00000000	          0.00000000	         30.05355835	         -4.14493942	          4.78898525	        -42.32072449	          5.35497618	          0.00000000	          0.00000000	         -0.58683717	         -6.11674166	          4.65524101	         23.56968043	        473.55341248	        -33.24014616	          1.49240942	          0.00000000	         -0.17761417	          0.00000000	          0.00000000	          0.00000000	          1.96266699	          0.00000000	         -0.32693396	          0.00000000	          2.18229126	          0.00000000	          0.00000000	          0.00000000	          0.00000000	          1.54476285	          0.82268006	         -0.23905462	          1.52793574	          0.80509245	         -0.17391087	          1.52559841	          0.80763239	         -0.32599929	          1.47271156	          0.43995464	         -0.19108562	          1.69240618	          0.44168556	         -0.35843503	          1.38203359	          0.07486799	         -0.20806652	          1.58045328	          0.10056075	         -0.35440451	          1.61881554	          0.87823594	         -0.24712840	          1.61676538	          0.87625724	         -0.13005562	          1.62086570	          0.88021457	         -0.36420119	          1.42823720	          0.94304508	         -0.21592140	          1.42542768	          0.93534946	         -0.26982665	          1.48257899	          0.43578112	         -0.13408372	          1.69609749	          0.44846332	         -0.41591921	          1.46496081	          0.44579697	         -0.25085676	          1.72489905	          0.45471933	         -0.29692581	          1.36721778	          0.07682209	         -0.17096299	          1.56393504	          0.10555547	         -0.39049050	          1.39813828	          0.07981291	         -0.23987338	          1.59532547	          0.10663810	         -0.33104792	          1.51843047	          1.37921059	         -0.25715268	          1.64739168	          1.32120621	         -0.21444713	          1.63954782	          1.31267405	         -0.31960717	          1.64006603	          1.31339586	         -0.26589856	          1.68054855	          1.24458933	         -0.26723263	          1.64701974	          0.54915327	         -0.21804506	          1.67777014	          0.58275121	         -0.49655059	          1.59802485	          0.60569757	         -0.15187073	          1.60948968	          0.60232455	         -0.42969611	          1.57106996	          0.52322441	         -0.15652926	          1.65464509	          0.52671981	         -0.42382595	          1.37539089	          0.14984180	         -0.09678456	          1.70703161	          0.19318879	         -0.35833773	          1.38261676	          0.15861998	         -0.13949110	          1.66634488	          0.20232606	         -0.36120692	          1.47456574	          0.03953016	         -0.17131674	          1.67021513	          0.05947249	         -0.39039746	
          0.32499993	          1.63145781	          0.87644506	         -0.24757460	         -5.75563049	          1.46739852	         -0.56373394	         -4.06691313	          1.33608043	         10.74785137	         -4.74708033	          8.34137917	          0.00000000	          0.00000000	         31.01140976	         -3.63680124	          4.41584301	        -39.86160278	          5.42639875	          0.00000000	          0.00000000	         -0.65908629	         -6.63314533	          4.75750828	         28.44381693	        489.16433145	        -31.68429658	          1.49351709	          0.00000000	         -0.17841434	          0.00000000	          0.00000000	          0.00000000	          1.96816064	          0.00000000	         -0.32754254	          0.00000000	          2.35883691	          0.00000000	          0.00000000	          0.00000000	          0.00000000	          1.55815172	          0.82234192	         -0.23916844	          1.54046297	          0.80314702	         -0.17465529	          1.53807580	          0.80637974	         -0.32672980	          1.47775877	          0.44023642	         -0.19209747	          1.71019363	          0.44303250	         -0.35713077	          1.38291013	          0.07603312	         -0.20872839	          1.61796832	          0.09521545	         -0.35471871	          1.63145781	          0.87644506	         -0.24757460	          1.62944150	          0.87393486	         -0.13024539	          1.63347423	          0.87895530	         -0.36490381	          1.44063735	          0.94175428	         -0.21611786	          1.43772447	          0.93403494	         -0.27013430	          1.48720968	          0.43586117	         -0.13504018	          1.71365821	          0.44948760	         -0.41466624	          1.47030723	          0.44719681	         -0.25384134	          1.74098980	          0.45691657	         -0.29545781	          1.36796975	          0.07823263	         -0.17168860	          1.60134661	          0.09937210	         -0.39086348	          1.39942002	          0.08141825	         -0.24031533	          1.63311994	          0.10140900	         -0.33154732	          1.53217983	          1.37815905	         -0.25695539	          1.66106224	          1.31954372	         -0.21446307	          1.65288222	          1.31061566	         -0.31931838	          1.65351963	          1.31189167	         -0.26588291	          1.69364321	          1.24252105	         -0.26688525	          1.65446305	          0.54611015	         -0.21802126	          1.69324017	          0.58258754	         -0.49595910	          1.60617185	          0.60328662	         -0.15172324	          1.62447643	          0.60240948	         -0.42967087	          1.57708907	          0.52066433	         -0.15765522	          1.67048967	          0.52724713	         -0.42310807	          1.37671781	          0.15140022	         -0.09764051	          1.73884904	          0.19538034	         -0.35776758	          1.38417292	          0.16028537	         -0.13963631	          1.69879508	          0.20234768	         -0.36059642	          1.47473276	          0.03960968	         -0.17149536	          1.71013308	          0.05960891	         -0.39172608	
